<svg version="1.2" xmlns="http://www.w3.org/2000/svg" viewBox="0 0 16 16" width="16" height="16">
	<title>gear-fill-svg</title>
	<style>
		.s0 { fill: #ffffff } 
	</style>
	<path id="Layer" fill-rule="evenodd" class="s0" d="m9.5 1.4q0.1 0.3 0.3 0.6 0.2 0.2 0.5 0.3 0.4 0.2 0.7 0.1 0.3 0 0.6-0.1l0.3-0.2c1.3-0.7 2.7 0.7 2 2l-0.2 0.3q-0.1 0.3-0.1 0.6-0.1 0.3 0.1 0.7 0.1 0.3 0.3 0.5 0.3 0.2 0.6 0.3l0.3 0.1c1.4 0.4 1.4 2.4 0 2.8l-0.3 0.1q-0.3 0.1-0.6 0.3-0.2 0.2-0.3 0.5-0.2 0.4-0.1 0.7 0 0.3 0.1 0.6l0.2 0.3c0.7 1.3-0.7 2.7-2 2l-0.3-0.2q-0.3-0.1-0.6-0.1-0.3-0.1-0.7 0.1-0.3 0.1-0.5 0.3-0.2 0.3-0.3 0.6l-0.1 0.4c-0.4 1.4-2.4 1.4-2.8 0l-0.1-0.4q-0.1-0.3-0.3-0.6-0.2-0.2-0.5-0.3-0.4-0.2-0.7-0.1-0.3 0-0.6 0.1l-0.3 0.2c-1.3 0.7-2.7-0.7-2-2l0.2-0.3q0.1-0.3 0.1-0.6 0.1-0.3-0.1-0.7-0.1-0.3-0.3-0.5-0.3-0.2-0.6-0.3l-0.4-0.1c-1.4-0.4-1.4-2.4 0-2.8l0.4-0.1c0.9-0.3 1.3-1.3 0.9-2.1l-0.2-0.3c-0.7-1.3 0.7-2.7 2-2l0.3 0.2q0.3 0.1 0.6 0.1 0.3 0.1 0.7-0.1 0.3-0.1 0.5-0.3 0.2-0.3 0.3-0.6l0.1-0.3c0.4-1.4 2.4-1.4 2.8 0zm0.6 8.6c0.5-0.5 0.8-1.3 0.8-2 0-0.8-0.3-1.6-0.8-2.1-0.6-0.6-1.3-0.9-2.1-0.9-0.8 0-1.5 0.3-2.1 0.9-0.5 0.5-0.8 1.3-0.8 2.1 0 0.7 0.3 1.5 0.8 2 0.6 0.6 1.3 0.9 2.1 0.9 0.8 0 1.5-0.3 2.1-0.9z"/>
</svg>