<svg width="26" height="28" viewBox="0 0 26 28" fill="none" xmlns="http://www.w3.org/2000/svg">
<path d="M13 0C9.47213 0 9.0285 0.017355 7.64237 0.083304C6.25625 0.152724 5.31213 0.385281 4.485 0.72891C3.6174 1.07743 2.83155 1.62413 2.18238 2.33078C1.52112 3.02445 1.0093 3.86364 0.6825 4.78998C0.36075 5.67161 0.141375 6.68167 0.078 8.15685C0.01625 9.6407 0 10.1128 0 13.8857C0 17.6552 0.01625 18.1273 0.078 19.6077C0.143 21.0863 0.36075 22.0947 0.6825 22.978C1.01562 23.8909 1.45925 24.6649 2.18238 25.4372C2.90388 26.2095 3.62863 26.685 4.48338 27.0391C5.31213 27.3827 6.25463 27.617 7.63913 27.6847C9.02688 27.7506 9.46887 27.768 13 27.768C16.5311 27.768 16.9715 27.7506 18.3593 27.6847C19.7421 27.6153 20.6895 27.3827 21.5166 27.0391C22.3837 26.6904 23.169 26.1437 23.8176 25.4372C24.5407 24.6649 24.9844 23.8909 25.3175 22.978C25.6376 22.0947 25.857 21.0863 25.922 19.6077C25.9837 18.1273 26 17.6552 26 13.884C26 10.1128 25.9837 9.6407 25.922 8.15859C25.857 6.68168 25.6376 5.67161 25.3175 4.78998C24.9907 3.86361 24.4789 3.02441 23.8176 2.33078C23.1687 1.62387 22.3827 1.07713 21.515 0.72891C20.6862 0.385281 19.7405 0.150989 18.3576 0.083304C16.9699 0.017355 16.5295 0 12.9967 0H13.0016H13ZM11.8349 2.50259H13.0016C16.4726 2.50259 16.8837 2.51474 18.2536 2.58242C19.5211 2.64317 20.2101 2.87052 20.6684 3.05969C21.2745 3.31133 21.7084 3.61331 22.1634 4.09925C22.6184 4.58519 22.8995 5.04683 23.1351 5.69591C23.3139 6.18359 23.5251 6.91944 23.582 8.27313C23.6454 9.73616 23.6584 10.1752 23.6584 13.8805C23.6584 17.5858 23.6454 18.0266 23.582 19.4897C23.5251 20.8434 23.3123 21.5775 23.1351 22.0669C22.9267 22.6697 22.594 23.2148 22.1617 23.6618C21.7067 24.1477 21.2745 24.448 20.6667 24.6996C20.2118 24.8905 19.5227 25.1162 18.2536 25.1786C16.8837 25.2446 16.4726 25.2602 13.0016 25.2602C9.53063 25.2602 9.11788 25.2446 7.748 25.1786C6.4805 25.1162 5.79313 24.8905 5.33488 24.6996C4.77019 24.4774 4.25933 24.1227 3.83987 23.6618C3.40722 23.2141 3.07405 22.6685 2.86488 22.0651C2.68775 21.5775 2.47487 20.8416 2.418 19.4879C2.35625 18.0249 2.34325 17.5858 2.34325 13.8771C2.34325 10.17 2.35625 9.73268 2.418 8.26966C2.4765 6.91597 2.68775 6.18012 2.8665 5.6907C3.10213 5.04336 3.38487 4.57998 3.83987 4.09404C4.29487 3.6081 4.72713 3.30786 5.33488 3.05622C5.79313 2.86531 6.4805 2.6397 7.748 2.57722C8.94725 2.51821 9.412 2.50086 11.8349 2.49912V2.50259ZM19.9404 4.80733C19.7355 4.80733 19.5327 4.85043 19.3434 4.93416C19.1541 5.01789 18.9821 5.14061 18.8373 5.29532C18.6924 5.45003 18.5775 5.6337 18.4991 5.83583C18.4207 6.03797 18.3804 6.25462 18.3804 6.47341C18.3804 6.69221 18.4207 6.90886 18.4991 7.111C18.5775 7.31313 18.6924 7.4968 18.8373 7.65151C18.9821 7.80622 19.1541 7.92894 19.3434 8.01267C19.5327 8.0964 19.7355 8.13949 19.9404 8.13949C20.3541 8.13949 20.7509 7.96396 21.0435 7.65151C21.336 7.33906 21.5004 6.91529 21.5004 6.47341C21.5004 6.03154 21.336 5.60777 21.0435 5.29532C20.7509 4.98287 20.3541 4.80733 19.9404 4.80733ZM13.0016 6.75457C12.1161 6.73981 11.2367 6.91334 10.4146 7.26505C9.59248 7.61676 8.84409 8.13962 8.21299 8.80319C7.5819 9.46676 7.08072 10.2578 6.73862 11.1302C6.39652 12.0026 6.22034 12.939 6.22034 13.8849C6.22034 14.8307 6.39652 15.7671 6.73862 16.6395C7.08072 17.5119 7.5819 18.303 8.21299 18.9665C8.84409 19.6301 9.59248 20.153 10.4146 20.5047C11.2367 20.8564 12.1161 21.0299 13.0016 21.0152C14.7543 20.986 16.4258 20.2219 17.6556 18.8879C18.8853 17.5539 19.5746 15.7569 19.5746 13.8849C19.5746 12.0128 18.8853 10.2159 17.6556 8.88185C16.4258 7.54784 14.7543 6.78377 13.0016 6.75457ZM13.0016 9.25542C14.151 9.25542 15.2534 9.74307 16.0661 10.6111C16.8789 11.4791 17.3355 12.6564 17.3355 13.884C17.3355 15.1116 16.8789 16.2889 16.0661 17.1569C15.2534 18.0249 14.151 18.5126 13.0016 18.5126C11.8522 18.5126 10.7499 18.0249 9.93711 17.1569C9.12435 16.2889 8.66775 15.1116 8.66775 13.884C8.66775 12.6564 9.12435 11.4791 9.93711 10.6111C10.7499 9.74307 11.8522 9.25542 13.0016 9.25542Z" fill="white"/>
</svg>
