<svg version="1.2" xmlns="http://www.w3.org/2000/svg" viewBox="0 0 24 24" width="24" height="24">
	<title>notificação-svg</title>
	<style>
		.s0 { fill: #ffffff } 
	</style>
	<path id="Layer" fill-rule="evenodd" class="s0" d="m20.9 1.4q0.9 0.4 1.6 1.1 0.7 0.7 1.1 1.6 0.4 0.9 0.4 1.9v12q0 1-0.4 1.9-0.4 0.9-1.1 1.6-0.7 0.7-1.6 1.1-0.9 0.4-1.9 0.4h-14q-1 0-1.9-0.4-0.9-0.4-1.6-1.1-0.7-0.7-1.1-1.6-0.4-0.9-0.4-1.9v-12q0-1 0.4-1.9 0.4-0.9 1.1-1.6 0.7-0.7 1.6-1.1 0.9-0.4 1.9-0.4h14q1 0 1.9 0.4zm-16.8 1.7q-0.4 0.2-0.8 0.4-0.4 0.3-0.6 0.6-0.3 0.4-0.5 0.8l7.7 7.6q0.4 0.5 1 0.7 0.5 0.2 1.1 0.2 0.6 0 1.1-0.2 0.6-0.2 1-0.7l7.7-7.6q-0.2-0.4-0.5-0.8-0.2-0.3-0.6-0.6-0.4-0.2-0.8-0.4-0.5-0.1-0.9-0.1h-14q-0.4 0-0.9 0.1zm16 17.7q0.6-0.3 1-0.7 0.4-0.4 0.7-1 0.2-0.5 0.2-1.1v-10.5l-6.5 6.5q-0.7 0.7-1.6 1-0.9 0.4-1.9 0.4-1 0-1.9-0.4-0.9-0.3-1.6-1l-6.5-6.5v10.5q0 0.6 0.2 1.1 0.3 0.6 0.7 1 0.4 0.4 1 0.7 0.5 0.2 1.1 0.2h14q0.6 0 1.1-0.2z"/>
</svg>