<svg version="1.2" xmlns="http://www.w3.org/2000/svg" viewBox="0 0 16 16" width="16" height="16">
	<title>search-svg</title>
	<style>
		.s0 { fill: #ffffff } 
	</style>
	<path id="Layer" fill-rule="evenodd" class="s0" d="m11.8 10.4q0 0 0 0 0 0 0 0 0 0 0.1 0l3.8 3.9q0.3 0.3 0.3 0.7 0 0.4-0.3 0.7-0.3 0.3-0.7 0.3-0.4 0-0.7-0.3l-3.9-3.8q0-0.1-0.1-0.2c-2.7 2.1-6.5 1.6-8.7-1-2.2-2.5-2.1-6.4 0.3-8.8 2.4-2.4 6.3-2.5 8.8-0.3 2.6 2.2 3.1 6 1 8.7q0.1 0.1 0.1 0.1zm-1.5 1.3q0 0 0 0 0 0 0 0zm0.1-9.1c-1-1-2.4-1.6-3.9-1.6-1.5 0-2.9 0.6-3.9 1.6-1 1-1.6 2.4-1.6 3.9 0 1.5 0.6 2.9 1.6 3.9 1 1 2.4 1.6 3.9 1.6 1.5 0 2.9-0.6 3.9-1.6 1-1 1.6-2.4 1.6-3.9 0-1.5-0.6-2.9-1.6-3.9z"/>
</svg>