<svg width="32" height="28" viewBox="0 0 32 28" fill="none" xmlns="http://www.w3.org/2000/svg">
<path d="M10.052 26.25C22.128 26.25 28.734 17.4947 28.734 9.91549C28.734 9.67049 28.734 9.42199 28.722 9.17699C30.0081 8.36234 31.1181 7.35376 32 6.19849C30.7986 6.66198 29.5255 6.96745 28.222 7.10499C29.5951 6.38686 30.6234 5.25694 31.116 3.92524C29.826 4.59396 28.414 5.0634 26.942 5.31299C25.9524 4.39078 24.6428 3.77985 23.2162 3.57482C21.7895 3.36979 20.3254 3.5821 19.0507 4.17888C17.7759 4.77566 16.7616 5.72359 16.1649 6.87585C15.5682 8.0281 15.4224 9.32037 15.75 10.5525C13.1395 10.438 10.5856 9.84456 8.25409 8.81079C5.92254 7.77702 3.86537 6.32597 2.216 4.55174C1.37868 5.81714 1.12315 7.31394 1.50129 8.73821C1.87944 10.1625 2.86291 11.4074 4.252 12.2202C3.21108 12.1893 2.19304 11.9447 1.28 11.5062V11.585C1.28179 12.9106 1.80661 14.195 2.76575 15.2211C3.72488 16.2472 5.0595 16.952 6.544 17.2165C5.98053 17.3523 5.39846 17.42 4.814 17.4177C4.40197 17.4188 3.99076 17.3854 3.586 17.318C4.00557 18.4591 4.82255 19.4568 5.92249 20.1713C7.02244 20.8859 8.35027 21.2815 9.72 21.3027C7.39311 22.9019 4.5188 23.7692 1.56 23.765C1.03864 23.7669 0.517646 23.7406 0 23.6862C3.00303 25.3615 6.4906 26.251 10.052 26.25Z" fill="white"/>
</svg>
